<svg xmlns="http://www.w3.org/2000/svg" xmlns:v="https://svgstorm.com"
viewBox = "0 0 512 512"
width="512"
height="512">
<g fill="None" fill-opacity="0.0" stroke="#FEFEFE" stroke-opacity="1.00" stroke-width="0.3"><path d="
M 0.00 512.00 
L 512.00 512.00
L 512.00 0.00
L 0.00 0.00
L 0.00 512.00
M 147.00 242.00 
C 150.47 242.69 154.78 245.96 158.00 247.00
C 162.79 248.55 179.05 250.45 180.00 256.00
C 180.33 257.91 177.66 260.87 178.00 263.00
C 165.92 262.98 154.26 264.70 142.00 264.00
C 141.42 260.23 139.09 256.94 139.00 253.00
C 138.51 251.59 137.53 249.71 137.00 248.00
C 136.05 244.96 135.04 242.03 134.00 239.00
C 131.65 232.13 129.43 225.02 119.00 229.00 C 108.57 232.98 125.86 233.43 128.00 237.00
C 129.83 240.05 129.90 244.62 131.00 248.00
C 131.68 250.09 132.34 252.60 133.00 255.00
C 135.25 263.18 138.32 271.15 127.93 267.07 C 117.53 262.99 116.50 263.91 110.00 256.00
C 107.97 253.53 106.29 251.14 105.00 248.00
C 103.95 245.45 103.22 242.80 103.00 240.00
C 101.33 218.92 116.92 205.14 138.00 207.00 C 159.08 208.86 184.52 205.60 206.00 207.00
C 209.93 221.86 200.71 234.00 187.00 235.00 C 173.29 236.00 152.54 229.25 147.00 242.00
M 252.00 248.00 
C 258.86 254.65 246.73 251.24 244.00 251.00
C 232.70 251.59 235.75 259.48 243.67 260.33 C 251.60 261.17 256.71 266.26 255.00 273.00
C 253.92 277.24 252.36 279.04 248.00 280.00
C 247.75 280.26 247.35 280.95 247.00 281.00
C 244.23 281.40 239.73 281.56 237.00 281.00
C 227.04 278.97 227.84 268.12 238.03 274.97 C 248.21 281.82 253.05 266.01 242.93 266.07 C 232.80 266.13 227.97 258.47 230.78 250.78 C 233.58 243.09 247.37 243.51 252.00 248.00
M 268.00 247.00 
C 270.48 250.57 268.21 256.63 269.00 261.00
C 274.67 261.00 280.33 261.00 286.00 261.00
C 287.14 256.41 283.59 248.19 288.00 246.00
C 289.43 245.15 288.63 245.10 290.00 246.00
C 293.66 248.41 292.35 256.44 292.00 261.00 C 291.65 265.56 293.47 274.47 292.00 279.00
C 291.65 280.09 290.90 280.51 290.00 281.00
C 283.22 284.67 285.08 270.80 285.00 267.00
C 279.67 267.00 274.33 267.00 269.00 267.00
C 269.00 268.65 268.48 273.69 269.00 275.00 C 269.52 276.31 268.24 282.04 267.00 281.00
C 266.57 281.20 264.47 281.12 264.00 281.00
C 260.08 279.97 261.99 268.88 262.00 265.00 C 262.01 261.12 260.66 250.18 263.00 247.00
C 263.22 246.70 263.72 246.23 264.00 246.00
C 265.83 244.50 266.72 245.16 268.00 247.00
M 307.00 278.00 
C 302.81 274.85 301.11 271.92 300.00 267.00
C 299.06 262.84 299.48 260.70 301.00 257.00
C 303.60 250.69 307.41 247.63 314.00 246.00
C 326.18 242.98 338.31 253.84 336.00 267.00 C 333.69 280.16 316.54 285.16 307.00 278.00
M 361.00 246.00 
C 369.07 248.00 374.36 254.24 371.02 263.02 C 367.69 271.80 357.89 271.00 350.00 271.00
C 350.23 273.59 351.17 280.04 348.00 281.00
C 346.37 281.49 345.00 280.96 344.00 280.00
C 341.05 277.18 343.22 267.29 343.00 263.00 C 342.78 258.71 341.35 248.64 345.00 246.00
C 348.61 243.40 357.29 245.08 361.00 246.00
M 396.00 265.00 
C 392.71 271.16 398.38 274.79 393.22 280.22 C 388.07 285.65 388.55 270.21 388.00 268.00
C 385.81 262.55 382.91 259.15 379.08 253.92 C 375.25 248.69 376.38 242.37 381.92 248.08 C 387.46 253.79 385.77 257.02 391.00 262.00
C 394.43 259.71 400.10 242.29 405.22 245.78 C 410.35 249.27 396.65 261.09 396.00 265.00
M 204.00 273.00 
C 204.83 275.66 204.89 278.08 205.00 281.00
C 205.79 301.76 190.75 313.54 170.00 312.00 C 149.25 310.46 124.15 313.16 103.00 312.00
C 102.88 302.30 101.34 292.29 109.75 285.75 C 118.16 279.21 129.74 282.94 140.00 282.00
C 139.85 291.82 155.53 289.56 153.00 280.00
C 157.33 280.00 161.67 280.00 166.00 280.00
C 165.11 284.94 169.25 289.95 174.22 288.22 C 179.20 286.48 178.44 280.81 182.00 278.00
C 181.96 277.00 182.03 276.00 182.00 275.00
C 168.21 274.41 153.62 276.94 141.00 272.00
C 151.06 265.36 168.57 271.58 181.00 268.00
C 184.61 265.58 183.44 259.12 186.00 256.00
C 194.12 258.03 201.33 265.17 204.00 273.00
M 174.00 280.00 
C 176.29 281.11 174.84 285.75 171.77 284.21 C 168.70 282.67 171.01 278.55 174.00 280.00
M 149.00 282.00 
C 144.58 288.05 142.67 277.22 149.00 282.00
M 389.00 371.00 
C 390.95 370.68 393.04 371.24 395.00 371.00
C 392.90 376.91 389.72 382.33 387.00 388.00
C 385.61 390.42 383.53 391.97 382.00 394.00
C 381.05 395.26 380.20 396.70 379.00 398.00
C 378.49 398.55 378.36 399.40 378.00 400.00
C 375.76 403.67 371.42 407.57 368.00 410.00
C 366.98 411.32 365.31 411.42 364.00 412.00
C 358.36 415.91 353.26 421.71 346.00 423.00
C 345.45 414.36 348.38 406.61 348.00 398.00
C 348.24 395.42 349.28 392.95 349.00 390.00
C 348.95 389.50 349.00 389.00 349.00 389.00
C 348.87 387.19 349.73 386.57 350.00 385.00
C 350.36 382.91 350.80 379.54 351.00 378.00
C 351.30 375.67 350.37 373.68 352.00 372.00
C 354.06 369.88 358.18 371.53 361.00 371.00
C 361.00 371.01 362.01 367.96 362.00 368.00
C 364.40 359.31 367.71 355.07 378.00 356.00
C 386.06 358.53 386.29 364.80 389.00 371.00
M 405.00 370.00 
C 404.81 371.51 402.58 374.58 402.00 376.00
C 401.43 377.41 400.59 378.81 400.00 380.00
C 399.00 382.02 398.16 384.15 397.00 386.00
C 393.89 390.98 390.79 395.69 387.00 400.00
C 386.04 401.09 384.95 402.05 384.00 403.00
C 383.06 403.94 381.89 405.11 381.00 406.00
C 379.89 407.11 379.40 408.16 378.00 409.00
C 377.68 409.19 377.26 409.77 377.00 410.00
C 377.11 409.97 378.00 410.51 379.00 410.00
C 382.57 408.16 387.11 402.95 390.00 400.00
C 390.85 399.13 392.27 397.84 393.00 397.00
C 396.06 393.49 397.78 388.20 401.00 385.00
C 403.51 397.78 404.16 411.03 406.00 424.00
C 404.25 427.96 396.84 425.61 393.00 426.00 C 389.16 426.39 381.92 426.04 378.00 426.00 C 374.08 425.96 366.28 426.50 363.00 426.00 C 359.72 425.50 349.80 427.77 349.00 425.00
C 347.95 424.47 359.15 419.14 361.00 418.00
C 364.00 415.51 368.06 413.68 371.00 411.00
C 371.92 410.16 373.14 408.84 374.00 408.00
C 375.58 406.45 377.50 404.53 379.00 403.00
C 379.86 402.13 381.27 400.84 382.00 400.00
C 384.58 397.04 386.56 392.94 389.00 390.00
C 391.10 386.61 393.36 382.35 395.00 379.00
C 395.46 377.54 396.56 376.14 397.00 375.00
C 397.42 373.93 398.00 371.21 398.00 370.00
C 397.34 368.95 396.61 367.77 395.00 366.00
C 397.91 365.25 399.51 362.39 402.00 361.00
C 402.98 360.17 403.40 358.14 405.00 358.00
C 405.40 362.91 408.10 367.19 409.00 372.00
C 407.66 371.27 406.36 370.66 405.00 370.00 Z"/>
</g>
<g fill="None" fill-opacity="0.0" stroke="#55B1AA" stroke-opacity="1.00" stroke-width="0.3"><path d="
M 103.00 240.00 
C 111.84 239.46 121.40 241.79 128.00 237.00
C 125.86 233.43 108.57 232.98 119.00 229.00 C 129.43 225.02 131.65 232.13 134.00 239.00
C 137.49 244.36 141.57 240.92 147.00 242.00
C 152.54 229.25 173.29 236.00 187.00 235.00 C 200.71 234.00 209.93 221.86 206.00 207.00
C 184.52 205.60 159.08 208.86 138.00 207.00 C 116.92 205.14 101.33 218.92 103.00 240.00 Z"/>
</g>
<g fill="None" fill-opacity="0.0" stroke="#7F9E98" stroke-opacity="1.00" stroke-width="0.3"><path d="
M 103.00 240.00 
C 103.22 242.80 103.95 245.45 105.00 248.00
C 107.19 249.82 115.33 248.16 117.74 248.40 C 120.16 248.65 129.71 250.05 131.00 248.00
C 129.90 244.62 129.83 240.05 128.00 237.00
C 121.40 241.79 111.84 239.46 103.00 240.00 Z"/>
</g>
<g fill="None" fill-opacity="0.0" stroke="#859C96" stroke-opacity="1.00" stroke-width="0.3"><path d="
M 137.00 248.00 
C 141.68 251.94 153.07 246.97 158.00 247.00
C 154.78 245.96 150.47 242.69 147.00 242.00
C 141.57 240.92 137.49 244.36 134.00 239.00
C 135.04 242.03 136.05 244.96 137.00 248.00 Z"/>
</g>
<g fill="None" fill-opacity="0.0" stroke="#210C2D" stroke-opacity="1.00" stroke-width="0.3"><path d="
M 237.00 281.00 
C 239.74 281.30 243.81 280.04 247.00 281.00
C 247.35 280.95 247.75 280.26 248.00 280.00
C 250.30 277.60 253.77 276.46 255.00 273.00
C 256.71 266.26 251.60 261.17 243.67 260.33 C 235.75 259.48 232.70 251.59 244.00 251.00
C 246.64 250.86 249.57 251.39 253.00 252.00
C 253.41 250.44 252.54 249.31 252.00 248.00
C 247.37 243.51 233.58 243.09 230.78 250.78 C 227.97 258.47 232.80 266.13 242.93 266.07 C 253.05 266.01 248.21 281.82 238.03 274.97 C 227.84 268.12 227.04 278.97 237.00 281.00 Z"/>
</g>
<g fill="None" fill-opacity="0.0" stroke="#2B1038" stroke-opacity="1.00" stroke-width="0.3"><path d="
M 264.00 246.00 
C 265.40 246.39 263.29 258.53 264.00 262.00 C 264.71 265.47 263.47 275.90 264.00 280.00
C 265.56 280.41 266.69 279.54 268.00 279.00
C 268.78 275.33 266.27 268.63 269.00 266.00
C 271.42 263.58 281.16 264.49 285.00 265.00 C 288.84 265.51 286.27 277.31 287.00 280.00
C 288.00 280.11 289.73 279.53 290.00 281.00
C 290.90 280.51 291.65 280.09 292.00 279.00
C 292.62 275.84 290.83 267.08 291.00 263.00 C 291.17 258.92 292.78 248.97 290.00 246.00
C 288.63 245.10 289.43 245.15 288.00 246.00
C 285.42 248.76 289.02 260.27 285.74 261.74 C 282.46 263.22 271.01 263.01 269.00 261.00
C 265.80 257.80 269.80 250.87 268.00 247.00
C 266.72 245.16 265.83 244.50 264.00 246.00 Z"/>
</g>
<g fill="None" fill-opacity="0.0" stroke="#220C2D" stroke-opacity="1.00" stroke-width="0.3"><path d="
M 314.00 246.00 
C 308.71 247.86 303.60 251.91 301.00 257.00
C 299.48 260.70 299.06 262.84 300.00 267.00
C 301.13 270.43 304.02 275.38 307.00 278.00
C 316.54 285.16 333.69 280.16 336.00 267.00 C 338.31 253.84 326.18 242.98 314.00 246.00
M 322.00 251.00 
C 336.68 255.46 328.93 280.84 313.78 275.22 C 298.63 269.60 306.23 246.21 322.00 251.00 Z"/>
</g>
<g fill="None" fill-opacity="0.0" stroke="#86778D" stroke-opacity="1.00" stroke-width="0.3"><path d="
M 345.00 246.00 
C 347.98 244.52 357.62 245.58 361.00 246.00
C 357.29 245.08 348.61 243.40 345.00 246.00 Z"/>
</g>
<g fill="None" fill-opacity="0.0" stroke="#240C30" stroke-opacity="1.00" stroke-width="0.3"><path d="
M 388.00 268.00 
C 389.37 271.42 389.05 275.91 389.00 280.00
C 397.61 280.96 389.06 267.58 396.00 265.00
C 396.65 261.09 410.35 249.27 405.22 245.78 C 400.10 242.29 394.43 259.71 391.00 262.00
C 385.77 257.02 387.46 253.79 381.92 248.08 C 376.38 242.37 375.25 248.69 379.08 253.92 C 382.91 259.15 385.81 262.55 388.00 268.00 Z"/>
</g>
<g fill="None" fill-opacity="0.0" stroke="#010016" stroke-opacity="1.00" stroke-width="0.3"><path d="
M 263.00 247.00 
C 262.42 251.06 262.49 260.29 263.00 264.00 C 263.51 267.71 260.77 279.24 264.00 281.00
C 264.47 281.12 266.57 281.20 267.00 281.00
C 267.36 280.83 267.92 279.36 268.00 279.00
C 266.69 279.54 265.56 280.41 264.00 280.00
C 263.47 275.90 264.71 265.47 264.00 262.00 C 263.29 258.53 265.40 246.39 264.00 246.00
C 263.72 246.23 263.22 246.70 263.00 247.00 Z"/>
</g>
<g fill="None" fill-opacity="0.0" stroke="#000000" stroke-opacity="1.00" stroke-width="0.3"><path d="
M 269.00 261.00 
C 271.01 263.01 282.46 263.22 285.74 261.74 C 289.02 260.27 285.42 248.76 288.00 246.00
C 283.59 248.19 287.14 256.41 286.00 261.00
C 280.33 261.00 274.67 261.00 269.00 261.00 Z"/>
</g>
<g fill="None" fill-opacity="0.0" stroke="#000000" stroke-opacity="1.00" stroke-width="0.3"><path d="
M 292.00 279.00 
C 293.47 274.47 291.65 265.56 292.00 261.00 C 292.35 256.44 293.66 248.41 290.00 246.00
C 292.78 248.97 291.17 258.92 291.00 263.00 C 290.83 267.08 292.62 275.84 292.00 279.00 Z"/>
</g>
<g fill="None" fill-opacity="0.0" stroke="#000000" stroke-opacity="1.00" stroke-width="0.3"><path d="
M 301.00 257.00 
C 303.60 251.91 308.71 247.86 314.00 246.00
C 307.41 247.63 303.60 250.69 301.00 257.00 Z"/>
</g>
<g fill="None" fill-opacity="0.0" stroke="#280F34" stroke-opacity="1.00" stroke-width="0.3"><path d="
M 344.00 280.00 
C 343.55 279.52 347.52 279.93 348.00 280.00
C 348.59 277.16 346.78 273.02 349.00 271.00
C 349.26 270.75 350.00 271.00 350.00 271.00
C 357.89 271.00 367.69 271.80 371.02 263.02 C 374.36 254.24 369.07 248.00 361.00 246.00
C 357.62 245.58 347.98 244.52 345.00 246.00
C 341.35 248.64 342.78 258.71 343.00 263.00 C 343.22 267.29 341.05 277.18 344.00 280.00
M 361.00 251.00 
C 361.25 251.26 361.00 252.00 361.00 252.00
C 370.03 253.49 365.03 263.51 359.00 265.00
C 356.52 265.61 351.34 267.43 349.00 265.00
C 341.96 257.96 352.83 242.57 361.00 251.00 Z"/>
</g>
<g fill="None" fill-opacity="0.0" stroke="#93948F" stroke-opacity="1.00" stroke-width="0.3"><path d="
M 137.00 248.00 
C 137.53 249.71 138.51 251.59 139.00 253.00
C 143.15 255.83 155.60 250.85 160.02 253.98 C 164.45 257.11 178.67 251.64 180.00 256.00
C 179.05 250.45 162.79 248.55 158.00 247.00
C 153.07 246.97 141.68 251.94 137.00 248.00 Z"/>
</g>
<g fill="None" fill-opacity="0.0" stroke="#988A9E" stroke-opacity="1.00" stroke-width="0.3"><path d="
M 264.00 281.00 
C 260.77 279.24 263.51 267.71 263.00 264.00 C 262.49 260.29 262.42 251.06 263.00 247.00
C 260.66 250.18 262.01 261.12 262.00 265.00 C 261.99 268.88 260.08 279.97 264.00 281.00 Z"/>
</g>
<g fill="None" fill-opacity="0.0" stroke="#908396" stroke-opacity="1.00" stroke-width="0.3"><path d="
M 269.00 261.00 
C 268.21 256.63 270.48 250.57 268.00 247.00
C 269.80 250.87 265.80 257.80 269.00 261.00 Z"/>
</g>
<g fill="None" fill-opacity="0.0" stroke="#94958E" stroke-opacity="1.00" stroke-width="0.3"><path d="
M 110.00 256.00 
C 115.69 258.38 127.58 250.60 133.00 255.00
C 132.34 252.60 131.68 250.09 131.00 248.00
C 129.71 250.05 120.16 248.65 117.74 248.40 C 115.33 248.16 107.19 249.82 105.00 248.00
C 106.29 251.14 107.97 253.53 110.00 256.00 Z"/>
</g>
<g fill="None" fill-opacity="0.0" stroke="#000000" stroke-opacity="1.00" stroke-width="0.3"><path d="
M 244.00 251.00 
C 246.73 251.24 258.86 254.65 252.00 248.00
C 252.54 249.31 253.41 250.44 253.00 252.00
C 249.57 251.39 246.64 250.86 244.00 251.00 Z"/>
</g>
<g fill="None" fill-opacity="0.0" stroke="#000000" stroke-opacity="1.00" stroke-width="0.3"><path d="
M 349.00 265.00 
C 348.58 260.37 349.31 255.64 349.00 251.00
C 353.00 251.00 357.00 251.00 361.00 251.00
C 352.83 242.57 341.96 257.96 349.00 265.00 Z"/>
</g>
<g fill="None" fill-opacity="0.0" stroke="#F9F7F9" stroke-opacity="1.00" stroke-width="0.3"><path d="
M 322.00 251.00 
C 306.23 246.21 298.63 269.60 313.78 275.22 C 328.93 280.84 336.68 255.46 322.00 251.00 Z"/>
</g>
<g fill="None" fill-opacity="0.0" stroke="#C4B9C9" stroke-opacity="1.00" stroke-width="0.3"><path d="
M 349.00 265.00 
C 349.00 265.04 350.00 265.00 350.00 265.00
C 350.39 260.70 349.71 256.31 350.00 252.00
C 353.67 252.00 357.33 252.00 361.00 252.00
C 361.00 252.00 361.25 251.26 361.00 251.00
C 357.00 251.00 353.00 251.00 349.00 251.00
C 349.31 255.64 348.58 260.37 349.00 265.00 Z"/>
</g>
<g fill="None" fill-opacity="0.0" stroke="#FBFBFB" stroke-opacity="1.00" stroke-width="0.3"><path d="
M 350.00 265.00 
C 352.92 265.00 356.10 265.36 359.00 265.00
C 365.03 263.51 370.03 253.49 361.00 252.00
C 357.33 252.00 353.67 252.00 350.00 252.00
C 349.71 256.31 350.39 260.70 350.00 265.00 Z"/>
</g>
<g fill="None" fill-opacity="0.0" stroke="#A98E86" stroke-opacity="1.00" stroke-width="0.3"><path d="
M 180.00 256.00 
C 178.67 251.64 164.45 257.11 160.02 253.98 C 155.60 250.85 143.15 255.83 139.00 253.00
C 139.09 256.94 141.42 260.23 142.00 264.00
C 154.26 264.70 165.92 262.98 178.00 263.00
C 177.66 260.87 180.33 257.91 180.00 256.00 Z"/>
</g>
<g fill="None" fill-opacity="0.0" stroke="#AD8C84" stroke-opacity="1.00" stroke-width="0.3"><path d="
M 110.00 256.00 
C 116.50 263.91 117.53 262.99 127.93 267.07 C 138.32 271.15 135.25 263.18 133.00 255.00
C 127.58 250.60 115.69 258.38 110.00 256.00 Z"/>
</g>
<g fill="None" fill-opacity="0.0" stroke="#AF8C87" stroke-opacity="1.00" stroke-width="0.3"><path d="
M 181.00 268.00 
C 189.21 264.62 199.59 262.78 204.00 273.00
C 201.33 265.17 194.12 258.03 186.00 256.00
C 183.44 259.12 184.61 265.58 181.00 268.00 Z"/>
</g>
<g fill="None" fill-opacity="0.0" stroke="#C9877E" stroke-opacity="1.00" stroke-width="0.3"><path d="
M 181.00 268.00 
C 168.57 271.58 151.06 265.36 141.00 272.00
C 153.62 276.94 168.21 274.41 182.00 275.00
C 182.03 276.00 181.96 277.00 182.00 278.00
C 182.78 277.17 183.27 276.41 183.00 275.00
C 190.33 275.59 203.06 271.26 205.00 281.00
C 204.89 278.08 204.83 275.66 204.00 273.00
C 199.59 262.78 189.21 264.62 181.00 268.00 Z"/>
</g>
<g fill="None" fill-opacity="0.0" stroke="#000000" stroke-opacity="1.00" stroke-width="0.3"><path d="
M 269.00 266.00 
C 274.62 265.49 280.37 266.38 286.00 266.00
C 287.28 270.67 282.68 280.94 290.00 281.00
C 289.73 279.53 288.00 280.11 287.00 280.00
C 286.27 277.31 288.84 265.51 285.00 265.00 C 281.16 264.49 271.42 263.58 269.00 266.00 Z"/>
</g>
<g fill="None" fill-opacity="0.0" stroke="#6A5A73" stroke-opacity="1.00" stroke-width="0.3"><path d="
M 359.00 265.00 
C 356.10 265.36 352.92 265.00 350.00 265.00
C 350.00 265.00 349.00 265.04 349.00 265.00
C 351.34 267.43 356.52 265.61 359.00 265.00 Z"/>
</g>
<g fill="None" fill-opacity="0.0" stroke="#000000" stroke-opacity="1.00" stroke-width="0.3"><path d="
M 388.00 268.00 
C 388.55 270.21 388.07 285.65 393.22 280.22 C 398.38 274.79 392.71 271.16 396.00 265.00
C 389.06 267.58 397.61 280.96 389.00 280.00
C 389.05 275.91 389.37 271.42 388.00 268.00 Z"/>
</g>
<g fill="None" fill-opacity="0.0" stroke="#7B6D83" stroke-opacity="1.00" stroke-width="0.3"><path d="
M 268.00 279.00 
C 267.92 279.36 267.36 280.83 267.00 281.00
C 268.24 282.04 269.52 276.31 269.00 275.00 C 268.48 273.69 269.00 268.65 269.00 267.00
C 269.00 266.50 269.00 266.00 269.00 266.00
C 266.27 268.63 268.78 275.33 268.00 279.00 Z"/>
</g>
<g fill="None" fill-opacity="0.0" stroke="#D3CAD5" stroke-opacity="1.00" stroke-width="0.3"><path d="
M 269.00 267.00 
C 274.33 267.00 279.67 267.00 285.00 267.00
C 285.08 270.80 283.22 284.67 290.00 281.00
C 282.68 280.94 287.28 270.67 286.00 266.00
C 280.37 266.38 274.62 265.49 269.00 266.00
C 269.00 266.00 269.00 266.50 269.00 267.00 Z"/>
</g>
<g fill="None" fill-opacity="0.0" stroke="#000000" stroke-opacity="1.00" stroke-width="0.3"><path d="
M 307.00 278.00 
C 304.02 275.38 301.13 270.43 300.00 267.00
C 301.11 271.92 302.81 274.85 307.00 278.00 Z"/>
</g>
<g fill="None" fill-opacity="0.0" stroke="#000000" stroke-opacity="1.00" stroke-width="0.3"><path d="
M 344.00 280.00 
C 345.00 280.96 346.37 281.49 348.00 281.00
C 350.17 279.94 348.83 272.93 349.00 271.00
C 346.78 273.02 348.59 277.16 348.00 280.00
C 347.52 279.93 343.55 279.52 344.00 280.00 Z"/>
</g>
<g fill="None" fill-opacity="0.0" stroke="#B9ACBD" stroke-opacity="1.00" stroke-width="0.3"><path d="
M 348.00 281.00 
C 351.17 280.04 350.23 273.59 350.00 271.00
C 350.00 271.00 349.26 270.75 349.00 271.00
C 348.83 272.93 350.17 279.94 348.00 281.00 Z"/>
</g>
<g fill="None" fill-opacity="0.0" stroke="#060610" stroke-opacity="1.00" stroke-width="0.3"><path d="
M 248.00 280.00 
C 252.36 279.04 253.92 277.24 255.00 273.00
C 253.77 276.46 250.30 277.60 248.00 280.00 Z"/>
</g>
<g fill="None" fill-opacity="0.0" stroke="#F1806F" stroke-opacity="1.00" stroke-width="0.3"><path d="
M 182.00 278.00 
C 178.44 280.81 179.20 286.48 174.22 288.22 C 169.25 289.95 165.11 284.94 166.00 280.00
C 161.67 280.00 157.33 280.00 153.00 280.00
C 155.53 289.56 139.85 291.82 140.00 282.00
C 129.74 282.94 118.16 279.21 109.75 285.75 C 101.34 292.29 102.88 302.30 103.00 312.00
C 124.15 313.16 149.25 310.46 170.00 312.00 C 190.75 313.54 205.79 301.76 205.00 281.00
C 203.06 271.26 190.33 275.59 183.00 275.00
C 183.27 276.41 182.78 277.17 182.00 278.00 Z"/>
</g>
<g fill="None" fill-opacity="0.0" stroke="#D7867D" stroke-opacity="1.00" stroke-width="0.3"><path d="
M 174.00 280.00 
C 171.01 278.55 168.70 282.67 171.77 284.21 C 174.84 285.75 176.29 281.11 174.00 280.00 Z"/>
</g>
<g fill="None" fill-opacity="0.0" stroke="#000000" stroke-opacity="1.00" stroke-width="0.3"><path d="
M 237.00 281.00 
C 239.73 281.56 244.23 281.40 247.00 281.00
C 243.81 280.04 239.74 281.30 237.00 281.00 Z"/>
</g>
<g fill="None" fill-opacity="0.0" stroke="#D28A81" stroke-opacity="1.00" stroke-width="0.3"><path d="
M 149.00 282.00 
C 142.67 277.22 144.58 288.05 149.00 282.00 Z"/>
</g>
<g fill="None" fill-opacity="0.0" stroke="#050306" stroke-opacity="1.00" stroke-width="0.3"><path d="
M 362.00 368.00 
C 362.06 368.35 362.89 368.74 363.00 369.00
C 363.34 360.76 370.35 356.72 378.00 357.00
C 377.75 356.72 378.00 356.00 378.00 356.00
C 367.71 355.07 364.40 359.31 362.00 368.00 Z"/>
</g>
<g fill="None" fill-opacity="0.0" stroke="#460F1C" stroke-opacity="1.00" stroke-width="0.3"><path d="
M 378.00 357.00 
C 379.85 359.07 382.04 359.45 384.25 361.75 C 386.46 364.06 385.45 368.60 387.00 371.00
C 387.30 370.67 388.55 372.49 389.00 372.00
C 389.00 371.50 389.00 371.00 389.00 371.00
C 386.29 364.80 386.06 358.53 378.00 356.00
C 378.00 356.00 377.75 356.72 378.00 357.00 Z"/>
</g>
<g fill="None" fill-opacity="0.0" stroke="#DFD1CC" stroke-opacity="1.00" stroke-width="0.3"><path d="
M 363.00 369.00 
C 362.98 369.50 362.77 370.84 363.00 371.00
C 363.34 371.23 364.00 371.00 364.00 371.00
C 364.82 364.99 367.28 359.66 374.01 359.01 C 380.74 358.36 386.07 364.15 385.00 371.00
C 385.50 371.00 386.84 370.77 387.00 371.00
C 385.45 368.60 386.46 364.06 384.25 361.75 C 382.04 359.45 379.85 359.07 378.00 357.00
C 370.35 356.72 363.34 360.76 363.00 369.00 Z"/>
</g>
<g fill="None" fill-opacity="0.0" stroke="#301128" stroke-opacity="1.00" stroke-width="0.3"><path d="
M 402.00 361.00 
C 404.83 361.38 405.27 367.90 405.00 370.00
C 406.36 370.66 407.66 371.27 409.00 372.00
C 408.10 367.19 405.40 362.91 405.00 358.00
C 403.40 358.14 402.98 360.17 402.00 361.00 Z"/>
</g>
<g fill="None" fill-opacity="0.0" stroke="#9C8055" stroke-opacity="1.00" stroke-width="0.3"><path d="
M 364.00 371.00 
C 364.50 371.00 365.53 370.87 366.00 371.00
C 367.48 366.94 368.44 358.92 375.01 360.01 C 381.58 361.10 383.27 365.62 384.00 371.00
C 384.50 371.00 385.00 371.00 385.00 371.00
C 386.07 364.15 380.74 358.36 374.01 359.01 C 367.28 359.66 364.82 364.99 364.00 371.00 Z"/>
</g>
<g fill="None" fill-opacity="0.0" stroke="#FAF8F5" stroke-opacity="1.00" stroke-width="0.3"><path d="
M 366.00 371.00 
C 368.07 369.11 380.95 371.00 384.00 371.00
C 383.27 365.62 381.58 361.10 375.01 360.01 C 368.44 358.92 367.48 366.94 366.00 371.00 Z"/>
</g>
<g fill="None" fill-opacity="0.0" stroke="#923C5E" stroke-opacity="1.00" stroke-width="0.3"><path d="
M 398.00 370.00 
C 398.61 370.97 401.95 375.27 402.00 376.00
C 402.58 374.58 404.81 371.51 405.00 370.00
C 405.27 367.90 404.83 361.38 402.00 361.00
C 399.51 362.39 397.91 365.25 395.00 366.00
C 396.61 367.77 397.34 368.95 398.00 370.00 Z"/>
</g>
<g fill="None" fill-opacity="0.0" stroke="#6E325A" stroke-opacity="1.00" stroke-width="0.3"><path d="
M 361.00 371.00 
C 359.15 373.76 354.22 370.39 352.00 372.00
C 350.37 373.68 351.30 375.67 351.00 378.00
C 352.10 381.09 358.16 378.25 359.75 384.25 C 361.35 390.25 376.22 396.99 374.00 403.00
C 375.14 402.05 377.09 401.06 378.00 400.00
C 378.36 399.40 378.49 398.55 379.00 398.00
C 378.52 392.91 366.69 383.57 363.00 381.00
C 361.93 380.25 357.99 381.18 359.00 378.00
C 361.25 376.32 361.17 380.15 363.00 377.00
C 362.43 374.25 361.80 373.51 363.00 371.00
C 362.77 370.84 362.98 369.50 363.00 369.00
C 362.89 368.74 362.06 368.35 362.00 368.00
C 362.01 367.96 361.00 371.01 361.00 371.00 Z"/>
</g>
<g fill="None" fill-opacity="0.0" stroke="#511E43" stroke-opacity="1.00" stroke-width="0.3"><path d="
M 397.00 375.00 
C 396.94 377.15 397.07 381.78 400.00 380.00
C 400.59 378.81 401.43 377.41 402.00 376.00
C 401.95 375.27 398.61 370.97 398.00 370.00
C 398.00 371.21 397.42 373.93 397.00 375.00 Z"/>
</g>
<g fill="None" fill-opacity="0.0" stroke="#210010" stroke-opacity="1.00" stroke-width="0.3"><path d="
M 352.00 372.00 
C 354.22 370.39 359.15 373.76 361.00 371.00
C 358.18 371.53 354.06 369.88 352.00 372.00 Z"/>
</g>
<g fill="None" fill-opacity="0.0" stroke="#451E4A" stroke-opacity="1.00" stroke-width="0.3"><path d="
M 363.00 377.00 
C 363.11 377.51 363.05 381.20 363.00 381.00
C 366.69 383.57 378.52 392.91 379.00 398.00
C 380.20 396.70 381.05 395.26 382.00 394.00
C 384.37 386.85 372.65 376.52 368.00 372.00
C 366.83 371.86 366.69 371.19 366.00 371.00
C 365.53 370.87 364.50 371.00 364.00 371.00
C 364.00 371.00 363.34 371.23 363.00 371.00
C 361.80 373.51 362.43 374.25 363.00 377.00 Z"/>
</g>
<g fill="None" fill-opacity="0.0" stroke="#000000" stroke-opacity="1.00" stroke-width="0.3"><path d="
M 368.00 372.00 
C 373.85 372.72 381.13 372.53 387.00 372.00
C 387.06 371.51 387.00 371.00 387.00 371.00
C 386.84 370.77 385.50 371.00 385.00 371.00
C 385.00 371.00 384.50 371.00 384.00 371.00
C 380.95 371.00 368.07 369.11 366.00 371.00
C 366.69 371.19 366.83 371.86 368.00 372.00 Z"/>
</g>
<g fill="None" fill-opacity="0.0" stroke="#956367" stroke-opacity="1.00" stroke-width="0.3"><path d="
M 387.00 372.00 
C 386.81 373.54 386.48 376.23 388.00 377.00
C 388.05 376.85 389.00 377.00 389.00 377.00
C 388.93 375.34 389.00 373.66 389.00 372.00
C 388.55 372.49 387.30 370.67 387.00 371.00
C 387.00 371.00 387.06 371.51 387.00 372.00 Z"/>
</g>
<g fill="None" fill-opacity="0.0" stroke="#000000" stroke-opacity="1.00" stroke-width="0.3"><path d="
M 389.00 372.00 
C 389.00 373.66 388.93 375.34 389.00 377.00
C 389.10 379.32 388.67 378.90 388.00 381.00
C 387.60 382.25 387.35 387.15 387.00 388.00
C 389.72 382.33 392.90 376.91 395.00 371.00
C 393.04 371.24 390.95 370.68 389.00 371.00
C 389.00 371.00 389.00 371.50 389.00 372.00
M 393.00 372.00 
C 393.73 380.92 385.77 372.65 393.00 372.00 Z"/>
</g>
<g fill="None" fill-opacity="0.0" stroke="#241033" stroke-opacity="1.00" stroke-width="0.3"><path d="
M 382.00 394.00 
C 383.53 391.97 385.61 390.42 387.00 388.00
C 387.35 387.15 387.60 382.25 388.00 381.00
C 387.91 380.75 383.45 380.14 385.00 378.00
C 386.69 375.60 387.86 380.93 388.00 377.00
C 386.48 376.23 386.81 373.54 387.00 372.00
C 381.13 372.53 373.85 372.72 368.00 372.00
C 372.65 376.52 384.37 386.85 382.00 394.00 Z"/>
</g>
<g fill="None" fill-opacity="0.0" stroke="#150825" stroke-opacity="1.00" stroke-width="0.3"><path d="
M 393.00 372.00 
C 385.77 372.65 393.73 380.92 393.00 372.00 Z"/>
</g>
<g fill="None" fill-opacity="0.0" stroke="#1C0A2C" stroke-opacity="1.00" stroke-width="0.3"><path d="
M 395.00 379.00 
C 393.54 383.61 392.05 386.33 389.00 390.00
C 386.56 392.94 384.58 397.04 382.00 400.00
C 382.16 400.65 384.27 400.51 384.00 403.00
C 384.95 402.05 386.04 401.09 387.00 400.00
C 389.23 396.47 393.70 390.22 397.00 386.00
C 398.16 384.15 399.00 382.02 400.00 380.00
C 397.07 381.78 396.94 377.15 397.00 375.00
C 396.56 376.14 395.46 377.54 395.00 379.00 Z"/>
</g>
<g fill="None" fill-opacity="0.0" stroke="#E5C9B6" stroke-opacity="1.00" stroke-width="0.3"><path d="
M 363.00 381.00 
C 363.05 381.20 363.11 377.51 363.00 377.00
C 361.17 380.15 361.25 376.32 359.00 378.00
C 357.99 381.18 361.93 380.25 363.00 381.00 Z"/>
</g>
<g fill="None" fill-opacity="0.0" stroke="#EBC9AA" stroke-opacity="1.00" stroke-width="0.3"><path d="
M 388.00 381.00 
C 388.67 378.90 389.10 379.32 389.00 377.00
C 389.00 377.00 388.05 376.85 388.00 377.00
C 387.86 380.93 386.69 375.60 385.00 378.00
C 383.45 380.14 387.91 380.75 388.00 381.00 Z"/>
</g>
<g fill="None" fill-opacity="0.0" stroke="#9A4566" stroke-opacity="1.00" stroke-width="0.3"><path d="
M 350.00 385.00 
C 352.30 382.55 358.86 391.64 360.92 394.08 C 362.97 396.52 369.32 402.79 371.00 406.00
C 372.20 405.33 373.58 404.36 374.00 403.00
C 376.22 396.99 361.35 390.25 359.75 384.25 C 358.16 378.25 352.10 381.09 351.00 378.00
C 350.80 379.54 350.36 382.91 350.00 385.00 Z"/>
</g>
<g fill="None" fill-opacity="0.0" stroke="#080914" stroke-opacity="1.00" stroke-width="0.3"><path d="
M 389.00 390.00 
C 392.05 386.33 393.54 383.61 395.00 379.00
C 393.36 382.35 391.10 386.61 389.00 390.00 Z"/>
</g>
<g fill="None" fill-opacity="0.0" stroke="#C35D70" stroke-opacity="1.00" stroke-width="0.3"><path d="
M 350.00 385.00 
C 349.73 386.57 348.87 387.19 349.00 389.00
C 351.80 389.59 356.91 396.65 359.25 398.75 C 361.59 400.86 369.11 407.25 368.00 409.00
C 367.77 409.36 368.00 410.00 368.00 410.00
C 371.42 407.57 375.76 403.67 378.00 400.00
C 377.09 401.06 375.14 402.05 374.00 403.00
C 373.58 404.36 372.20 405.33 371.00 406.00
C 369.32 402.79 362.97 396.52 360.92 394.08 C 358.86 391.64 352.30 382.55 350.00 385.00 Z"/>
</g>
<g fill="None" fill-opacity="0.0" stroke="#AA7F4B" stroke-opacity="1.00" stroke-width="0.3"><path d="
M 393.00 397.00 
C 392.69 399.75 396.64 406.65 395.00 410.00 C 393.36 413.35 397.68 423.05 394.00 425.00
C 396.45 425.00 404.46 426.30 406.00 424.00
C 404.16 411.03 403.51 397.78 401.00 385.00
C 397.78 388.20 396.06 393.49 393.00 397.00 Z"/>
</g>
<g fill="None" fill-opacity="0.0" stroke="#030407" stroke-opacity="1.00" stroke-width="0.3"><path d="
M 387.00 400.00 
C 390.79 395.69 393.89 390.98 397.00 386.00
C 393.70 390.22 389.23 396.47 387.00 400.00 Z"/>
</g>
<g fill="None" fill-opacity="0.0" stroke="#A04563" stroke-opacity="1.00" stroke-width="0.3"><path d="
M 349.00 390.00 
C 350.82 394.18 361.09 413.33 368.00 409.00
C 369.11 407.25 361.59 400.86 359.25 398.75 C 356.91 396.65 351.80 389.59 349.00 389.00
C 349.00 389.00 348.95 389.50 349.00 390.00 Z"/>
</g>
<g fill="None" fill-opacity="0.0" stroke="#742F59" stroke-opacity="1.00" stroke-width="0.3"><path d="
M 348.00 398.00 
C 348.21 405.53 355.99 408.09 360.00 414.00
C 361.34 413.27 362.64 412.66 364.00 412.00
C 365.31 411.42 366.98 411.32 368.00 410.00
C 368.00 410.00 367.77 409.36 368.00 409.00
C 361.09 413.33 350.82 394.18 349.00 390.00
C 349.28 392.95 348.24 395.42 348.00 398.00 Z"/>
</g>
<g fill="None" fill-opacity="0.0" stroke="#CDAC78" stroke-opacity="1.00" stroke-width="0.3"><path d="
M 390.00 400.00 
C 386.43 407.19 390.60 417.24 389.00 425.00
C 390.67 425.00 392.33 425.00 394.00 425.00
C 397.68 423.05 393.36 413.35 395.00 410.00 C 396.64 406.65 392.69 399.75 393.00 397.00
C 392.27 397.84 390.85 399.13 390.00 400.00 Z"/>
</g>
<g fill="None" fill-opacity="0.0" stroke="#301139" stroke-opacity="1.00" stroke-width="0.3"><path d="
M 364.00 412.00 
C 362.64 412.66 361.34 413.27 360.00 414.00
C 355.99 408.09 348.21 405.53 348.00 398.00
C 348.38 406.61 345.45 414.36 346.00 423.00
C 353.26 421.71 358.36 415.91 364.00 412.00 Z"/>
</g>
<g fill="None" fill-opacity="0.0" stroke="#722B4D" stroke-opacity="1.00" stroke-width="0.3"><path d="
M 379.00 403.00 
C 379.03 403.24 381.23 403.82 381.00 406.00
C 381.89 405.11 383.06 403.94 384.00 403.00
C 384.27 400.51 382.16 400.65 382.00 400.00
C 381.27 400.84 379.86 402.13 379.00 403.00 Z"/>
</g>
<g fill="None" fill-opacity="0.0" stroke="#F0DEAE" stroke-opacity="1.00" stroke-width="0.3"><path d="
M 379.00 410.00 
C 382.44 411.87 378.49 421.82 380.00 425.00
C 383.00 425.00 386.00 425.00 389.00 425.00
C 390.60 417.24 386.43 407.19 390.00 400.00
C 387.11 402.95 382.57 408.16 379.00 410.00 Z"/>
</g>
<g fill="None" fill-opacity="0.0" stroke="#B15B70" stroke-opacity="1.00" stroke-width="0.3"><path d="
M 374.00 408.00 
C 375.07 407.51 377.62 407.97 378.00 409.00
C 379.40 408.16 379.89 407.11 381.00 406.00
C 381.23 403.82 379.03 403.24 379.00 403.00
C 377.50 404.53 375.58 406.45 374.00 408.00 Z"/>
</g>
<g fill="None" fill-opacity="0.0" stroke="#6B2B51" stroke-opacity="1.00" stroke-width="0.3"><path d="
M 374.00 408.00 
C 373.14 408.84 371.92 410.16 371.00 411.00
C 369.73 412.87 370.22 414.60 369.00 416.00
C 370.35 415.07 371.77 413.98 373.00 413.00
C 374.26 412.00 375.85 411.02 377.00 410.00
C 377.26 409.77 377.68 409.19 378.00 409.00
C 377.62 407.97 375.07 407.51 374.00 408.00 Z"/>
</g>
<g fill="None" fill-opacity="0.0" stroke="#D9BB86" stroke-opacity="1.00" stroke-width="0.3"><path d="
M 373.00 413.00 
C 372.75 413.21 373.00 414.00 373.00 414.00
C 374.22 413.11 375.38 411.87 377.00 412.00
C 374.94 415.87 376.48 420.72 376.00 425.00
C 377.33 425.00 378.67 425.00 380.00 425.00
C 378.49 421.82 382.44 411.87 379.00 410.00
C 378.00 410.51 377.11 409.97 377.00 410.00
C 375.85 411.02 374.26 412.00 373.00 413.00 Z"/>
</g>
<g fill="None" fill-opacity="0.0" stroke="#2B0E30" stroke-opacity="1.00" stroke-width="0.3"><path d="
M 361.00 418.00 
C 359.72 419.06 358.35 421.14 357.00 422.00
C 361.12 420.24 365.29 418.56 369.00 416.00
C 370.22 414.60 369.73 412.87 371.00 411.00
C 368.06 413.68 364.00 415.51 361.00 418.00 Z"/>
</g>
<g fill="None" fill-opacity="0.0" stroke="#C29D63" stroke-opacity="1.00" stroke-width="0.3"><path d="
M 373.00 414.00 
C 371.30 415.66 369.07 423.53 372.00 425.00
C 373.33 425.00 374.67 425.00 376.00 425.00
C 376.48 420.72 374.94 415.87 377.00 412.00
C 375.38 411.87 374.22 413.11 373.00 414.00 Z"/>
</g>
<g fill="None" fill-opacity="0.0" stroke="#A57848" stroke-opacity="1.00" stroke-width="0.3"><path d="
M 369.00 416.00 
C 365.29 418.56 361.12 420.24 357.00 422.00
C 355.01 422.85 352.73 424.40 351.00 425.00
C 358.00 425.00 365.00 425.00 372.00 425.00
C 369.07 423.53 371.30 415.66 373.00 414.00
C 373.00 414.00 372.75 413.21 373.00 413.00
C 371.77 413.98 370.35 415.07 369.00 416.00 Z"/>
</g>
<g fill="None" fill-opacity="0.0" stroke="#1D1619" stroke-opacity="1.00" stroke-width="0.3"><path d="
M 349.00 425.00 
C 349.04 425.13 350.50 425.00 351.00 425.00
C 352.73 424.40 355.01 422.85 357.00 422.00
C 358.35 421.14 359.72 419.06 361.00 418.00
C 359.15 419.14 347.95 424.47 349.00 425.00 Z"/>
</g>
<g fill="None" fill-opacity="0.0" stroke="#E8E0CC" stroke-opacity="1.00" stroke-width="0.3"><path d="
M 394.00 425.00 
C 392.33 425.00 390.67 425.00 389.00 425.00
C 386.00 425.00 383.00 425.00 380.00 425.00
C 378.67 425.00 377.33 425.00 376.00 425.00
C 374.67 425.00 373.33 425.00 372.00 425.00
C 365.00 425.00 358.00 425.00 351.00 425.00
C 350.50 425.00 349.04 425.13 349.00 425.00
C 349.80 427.77 359.72 425.50 363.00 426.00 C 366.28 426.50 374.08 425.96 378.00 426.00 C 381.92 426.04 389.16 426.39 393.00 426.00 C 396.84 425.61 404.25 427.96 406.00 424.00
C 404.46 426.30 396.45 425.00 394.00 425.00 Z"/>
</g>
<g fill="#FEFEFE" fill-opacity="1.00" stroke="None">
<path d="
M 0.00 512.00 
L 512.00 512.00
L 512.00 0.00
L 0.00 0.00
L 0.00 512.00
M 147.00 242.00 
C 150.47 242.69 154.78 245.96 158.00 247.00
C 162.79 248.55 179.05 250.45 180.00 256.00
C 180.33 257.91 177.66 260.87 178.00 263.00
C 165.92 262.98 154.26 264.70 142.00 264.00
C 141.42 260.23 139.09 256.94 139.00 253.00
C 138.51 251.59 137.53 249.71 137.00 248.00
C 136.05 244.96 135.04 242.03 134.00 239.00
C 131.65 232.13 129.43 225.02 119.00 229.00 C 108.57 232.98 125.86 233.43 128.00 237.00
C 129.83 240.05 129.90 244.62 131.00 248.00
C 131.68 250.09 132.34 252.60 133.00 255.00
C 135.25 263.18 138.32 271.15 127.93 267.07 C 117.53 262.99 116.50 263.91 110.00 256.00
C 107.97 253.53 106.29 251.14 105.00 248.00
C 103.95 245.45 103.22 242.80 103.00 240.00
C 101.33 218.92 116.92 205.14 138.00 207.00 C 159.08 208.86 184.52 205.60 206.00 207.00
C 209.93 221.86 200.71 234.00 187.00 235.00 C 173.29 236.00 152.54 229.25 147.00 242.00
M 252.00 248.00 
C 258.86 254.65 246.73 251.24 244.00 251.00
C 232.70 251.59 235.75 259.48 243.67 260.33 C 251.60 261.17 256.71 266.26 255.00 273.00
C 253.92 277.24 252.36 279.04 248.00 280.00
C 247.75 280.26 247.35 280.95 247.00 281.00
C 244.23 281.40 239.73 281.56 237.00 281.00
C 227.04 278.97 227.84 268.12 238.03 274.97 C 248.21 281.82 253.05 266.01 242.93 266.07 C 232.80 266.13 227.97 258.47 230.78 250.78 C 233.58 243.09 247.37 243.51 252.00 248.00
M 268.00 247.00 
C 270.48 250.57 268.21 256.63 269.00 261.00
C 274.67 261.00 280.33 261.00 286.00 261.00
C 287.14 256.41 283.59 248.19 288.00 246.00
C 289.43 245.15 288.63 245.10 290.00 246.00
C 293.66 248.41 292.35 256.44 292.00 261.00 C 291.65 265.56 293.47 274.47 292.00 279.00
C 291.65 280.09 290.90 280.51 290.00 281.00
C 283.22 284.67 285.08 270.80 285.00 267.00
C 279.67 267.00 274.33 267.00 269.00 267.00
C 269.00 268.65 268.48 273.69 269.00 275.00 C 269.52 276.31 268.24 282.04 267.00 281.00
C 266.57 281.20 264.47 281.12 264.00 281.00
C 260.08 279.97 261.99 268.88 262.00 265.00 C 262.01 261.12 260.66 250.18 263.00 247.00
C 263.22 246.70 263.72 246.23 264.00 246.00
C 265.83 244.50 266.72 245.16 268.00 247.00
M 307.00 278.00 
C 302.81 274.85 301.11 271.92 300.00 267.00
C 299.06 262.84 299.48 260.70 301.00 257.00
C 303.60 250.69 307.41 247.63 314.00 246.00
C 326.18 242.98 338.31 253.84 336.00 267.00 C 333.69 280.16 316.54 285.16 307.00 278.00
M 361.00 246.00 
C 369.07 248.00 374.36 254.24 371.02 263.02 C 367.69 271.80 357.89 271.00 350.00 271.00
C 350.23 273.59 351.17 280.04 348.00 281.00
C 346.37 281.49 345.00 280.96 344.00 280.00
C 341.05 277.18 343.22 267.29 343.00 263.00 C 342.78 258.71 341.35 248.64 345.00 246.00
C 348.61 243.40 357.29 245.08 361.00 246.00
M 396.00 265.00 
C 392.71 271.16 398.38 274.79 393.22 280.22 C 388.07 285.65 388.55 270.21 388.00 268.00
C 385.81 262.55 382.91 259.15 379.08 253.92 C 375.25 248.69 376.38 242.37 381.92 248.08 C 387.46 253.79 385.77 257.02 391.00 262.00
C 394.43 259.71 400.10 242.29 405.22 245.78 C 410.35 249.27 396.65 261.09 396.00 265.00
M 204.00 273.00 
C 204.83 275.66 204.89 278.08 205.00 281.00
C 205.79 301.76 190.75 313.54 170.00 312.00 C 149.25 310.46 124.15 313.16 103.00 312.00
C 102.88 302.30 101.34 292.29 109.75 285.75 C 118.16 279.21 129.74 282.94 140.00 282.00
C 139.85 291.82 155.53 289.56 153.00 280.00
C 157.33 280.00 161.67 280.00 166.00 280.00
C 165.11 284.94 169.25 289.95 174.22 288.22 C 179.20 286.48 178.44 280.81 182.00 278.00
C 181.96 277.00 182.03 276.00 182.00 275.00
C 168.21 274.41 153.62 276.94 141.00 272.00
C 151.06 265.36 168.57 271.58 181.00 268.00
C 184.61 265.58 183.44 259.12 186.00 256.00
C 194.12 258.03 201.33 265.17 204.00 273.00
M 174.00 280.00 
C 176.29 281.11 174.84 285.75 171.77 284.21 C 168.70 282.67 171.01 278.55 174.00 280.00
M 149.00 282.00 
C 144.58 288.05 142.67 277.22 149.00 282.00
M 389.00 371.00 
C 390.95 370.68 393.04 371.24 395.00 371.00
C 392.90 376.91 389.72 382.33 387.00 388.00
C 385.61 390.42 383.53 391.97 382.00 394.00
C 381.05 395.26 380.20 396.70 379.00 398.00
C 378.49 398.55 378.36 399.40 378.00 400.00
C 375.76 403.67 371.42 407.57 368.00 410.00
C 366.98 411.32 365.31 411.42 364.00 412.00
C 358.36 415.91 353.26 421.71 346.00 423.00
C 345.45 414.36 348.38 406.61 348.00 398.00
C 348.24 395.42 349.28 392.95 349.00 390.00
C 348.95 389.50 349.00 389.00 349.00 389.00
C 348.87 387.19 349.73 386.57 350.00 385.00
C 350.36 382.91 350.80 379.54 351.00 378.00
C 351.30 375.67 350.37 373.68 352.00 372.00
C 354.06 369.88 358.18 371.53 361.00 371.00
C 361.00 371.01 362.01 367.96 362.00 368.00
C 364.40 359.31 367.71 355.07 378.00 356.00
C 386.06 358.53 386.29 364.80 389.00 371.00
M 405.00 370.00 
C 404.81 371.51 402.58 374.58 402.00 376.00
C 401.43 377.41 400.59 378.81 400.00 380.00
C 399.00 382.02 398.16 384.15 397.00 386.00
C 393.89 390.98 390.79 395.69 387.00 400.00
C 386.04 401.09 384.95 402.05 384.00 403.00
C 383.06 403.94 381.89 405.11 381.00 406.00
C 379.89 407.11 379.40 408.16 378.00 409.00
C 377.68 409.19 377.26 409.77 377.00 410.00
C 377.11 409.97 378.00 410.51 379.00 410.00
C 382.57 408.16 387.11 402.95 390.00 400.00
C 390.85 399.13 392.27 397.84 393.00 397.00
C 396.06 393.49 397.78 388.20 401.00 385.00
C 403.51 397.78 404.16 411.03 406.00 424.00
C 404.25 427.96 396.84 425.61 393.00 426.00 C 389.16 426.39 381.92 426.04 378.00 426.00 C 374.08 425.96 366.28 426.50 363.00 426.00 C 359.72 425.50 349.80 427.77 349.00 425.00
C 347.95 424.47 359.15 419.14 361.00 418.00
C 364.00 415.51 368.06 413.68 371.00 411.00
C 371.92 410.16 373.14 408.84 374.00 408.00
C 375.58 406.45 377.50 404.53 379.00 403.00
C 379.86 402.13 381.27 400.84 382.00 400.00
C 384.58 397.04 386.56 392.94 389.00 390.00
C 391.10 386.61 393.36 382.35 395.00 379.00
C 395.46 377.54 396.56 376.14 397.00 375.00
C 397.42 373.93 398.00 371.21 398.00 370.00
C 397.34 368.95 396.61 367.77 395.00 366.00
C 397.91 365.25 399.51 362.39 402.00 361.00
C 402.98 360.17 403.40 358.14 405.00 358.00
C 405.40 362.91 408.10 367.19 409.00 372.00
C 407.66 371.27 406.36 370.66 405.00 370.00 Z"/>
</g>
<g fill="#55B1AA" fill-opacity="1.00" stroke="None">
<path d="
M 103.00 240.00 
C 111.84 239.46 121.40 241.79 128.00 237.00
C 125.86 233.43 108.57 232.98 119.00 229.00 C 129.43 225.02 131.65 232.13 134.00 239.00
C 137.49 244.36 141.57 240.92 147.00 242.00
C 152.54 229.25 173.29 236.00 187.00 235.00 C 200.71 234.00 209.93 221.86 206.00 207.00
C 184.52 205.60 159.08 208.86 138.00 207.00 C 116.92 205.14 101.33 218.92 103.00 240.00 Z"/>
</g>
<g fill="#7F9E98" fill-opacity="1.00" stroke="None">
<path d="
M 103.00 240.00 
C 103.22 242.80 103.95 245.45 105.00 248.00
C 107.19 249.82 115.33 248.16 117.74 248.40 C 120.16 248.65 129.71 250.05 131.00 248.00
C 129.90 244.62 129.83 240.05 128.00 237.00
C 121.40 241.79 111.84 239.46 103.00 240.00 Z"/>
</g>
<g fill="#859C96" fill-opacity="1.00" stroke="None">
<path d="
M 137.00 248.00 
C 141.68 251.94 153.07 246.97 158.00 247.00
C 154.78 245.96 150.47 242.69 147.00 242.00
C 141.57 240.92 137.49 244.36 134.00 239.00
C 135.04 242.03 136.05 244.96 137.00 248.00 Z"/>
</g>
<g fill="#210C2D" fill-opacity="1.00" stroke="None">
<path d="
M 237.00 281.00 
C 239.74 281.30 243.81 280.04 247.00 281.00
C 247.35 280.95 247.75 280.26 248.00 280.00
C 250.30 277.60 253.77 276.46 255.00 273.00
C 256.71 266.26 251.60 261.17 243.67 260.33 C 235.75 259.48 232.70 251.59 244.00 251.00
C 246.64 250.86 249.57 251.39 253.00 252.00
C 253.41 250.44 252.54 249.31 252.00 248.00
C 247.37 243.51 233.58 243.09 230.78 250.78 C 227.97 258.47 232.80 266.13 242.93 266.07 C 253.05 266.01 248.21 281.82 238.03 274.97 C 227.84 268.12 227.04 278.97 237.00 281.00 Z"/>
</g>
<g fill="#2B1038" fill-opacity="1.00" stroke="None">
<path d="
M 264.00 246.00 
C 265.40 246.39 263.29 258.53 264.00 262.00 C 264.71 265.47 263.47 275.90 264.00 280.00
C 265.56 280.41 266.69 279.54 268.00 279.00
C 268.78 275.33 266.27 268.63 269.00 266.00
C 271.42 263.58 281.16 264.49 285.00 265.00 C 288.84 265.51 286.27 277.31 287.00 280.00
C 288.00 280.11 289.73 279.53 290.00 281.00
C 290.90 280.51 291.65 280.09 292.00 279.00
C 292.62 275.84 290.83 267.08 291.00 263.00 C 291.17 258.92 292.78 248.97 290.00 246.00
C 288.63 245.10 289.43 245.15 288.00 246.00
C 285.42 248.76 289.02 260.27 285.74 261.74 C 282.46 263.22 271.01 263.01 269.00 261.00
C 265.80 257.80 269.80 250.87 268.00 247.00
C 266.72 245.16 265.83 244.50 264.00 246.00 Z"/>
</g>
<g fill="#220C2D" fill-opacity="1.00" stroke="None">
<path d="
M 314.00 246.00 
C 308.71 247.86 303.60 251.91 301.00 257.00
C 299.48 260.70 299.06 262.84 300.00 267.00
C 301.13 270.43 304.02 275.38 307.00 278.00
C 316.54 285.16 333.69 280.16 336.00 267.00 C 338.31 253.84 326.18 242.98 314.00 246.00
M 322.00 251.00 
C 336.68 255.46 328.93 280.84 313.78 275.22 C 298.63 269.60 306.23 246.21 322.00 251.00 Z"/>
</g>
<g fill="#86778D" fill-opacity="1.00" stroke="None">
<path d="
M 345.00 246.00 
C 347.98 244.52 357.62 245.58 361.00 246.00
C 357.29 245.08 348.61 243.40 345.00 246.00 Z"/>
</g>
<g fill="#240C30" fill-opacity="1.00" stroke="None">
<path d="
M 388.00 268.00 
C 389.37 271.42 389.05 275.91 389.00 280.00
C 397.61 280.96 389.06 267.58 396.00 265.00
C 396.65 261.09 410.35 249.27 405.22 245.78 C 400.10 242.29 394.43 259.71 391.00 262.00
C 385.77 257.02 387.46 253.79 381.92 248.08 C 376.38 242.37 375.25 248.69 379.08 253.92 C 382.91 259.15 385.81 262.55 388.00 268.00 Z"/>
</g>
<g fill="#010016" fill-opacity="1.00" stroke="None">
<path d="
M 263.00 247.00 
C 262.42 251.06 262.49 260.29 263.00 264.00 C 263.51 267.71 260.77 279.24 264.00 281.00
C 264.47 281.12 266.57 281.20 267.00 281.00
C 267.36 280.83 267.92 279.36 268.00 279.00
C 266.69 279.54 265.56 280.41 264.00 280.00
C 263.47 275.90 264.71 265.47 264.00 262.00 C 263.29 258.53 265.40 246.39 264.00 246.00
C 263.72 246.23 263.22 246.70 263.00 247.00 Z"/>
</g>
<g fill="#000000" fill-opacity="1.00" stroke="None">
<path d="
M 269.00 261.00 
C 271.01 263.01 282.46 263.22 285.74 261.74 C 289.02 260.27 285.42 248.76 288.00 246.00
C 283.59 248.19 287.14 256.41 286.00 261.00
C 280.33 261.00 274.67 261.00 269.00 261.00 Z"/>
</g>
<g fill="#000000" fill-opacity="1.00" stroke="None">
<path d="
M 292.00 279.00 
C 293.47 274.47 291.65 265.56 292.00 261.00 C 292.35 256.44 293.66 248.41 290.00 246.00
C 292.78 248.97 291.17 258.92 291.00 263.00 C 290.83 267.08 292.62 275.84 292.00 279.00 Z"/>
</g>
<g fill="#000000" fill-opacity="1.00" stroke="None">
<path d="
M 301.00 257.00 
C 303.60 251.91 308.71 247.86 314.00 246.00
C 307.41 247.63 303.60 250.69 301.00 257.00 Z"/>
</g>
<g fill="#280F34" fill-opacity="1.00" stroke="None">
<path d="
M 344.00 280.00 
C 343.55 279.52 347.52 279.93 348.00 280.00
C 348.59 277.16 346.78 273.02 349.00 271.00
C 349.26 270.75 350.00 271.00 350.00 271.00
C 357.89 271.00 367.69 271.80 371.02 263.02 C 374.36 254.24 369.07 248.00 361.00 246.00
C 357.62 245.58 347.98 244.52 345.00 246.00
C 341.35 248.64 342.78 258.71 343.00 263.00 C 343.22 267.29 341.05 277.18 344.00 280.00
M 361.00 251.00 
C 361.25 251.26 361.00 252.00 361.00 252.00
C 370.03 253.49 365.03 263.51 359.00 265.00
C 356.52 265.61 351.34 267.43 349.00 265.00
C 341.96 257.96 352.83 242.57 361.00 251.00 Z"/>
</g>
<g fill="#93948F" fill-opacity="1.00" stroke="None">
<path d="
M 137.00 248.00 
C 137.53 249.71 138.51 251.59 139.00 253.00
C 143.15 255.83 155.60 250.85 160.02 253.98 C 164.45 257.11 178.67 251.64 180.00 256.00
C 179.05 250.45 162.79 248.55 158.00 247.00
C 153.07 246.97 141.68 251.94 137.00 248.00 Z"/>
</g>
<g fill="#988A9E" fill-opacity="1.00" stroke="None">
<path d="
M 264.00 281.00 
C 260.77 279.24 263.51 267.71 263.00 264.00 C 262.49 260.29 262.42 251.06 263.00 247.00
C 260.66 250.18 262.01 261.12 262.00 265.00 C 261.99 268.88 260.08 279.97 264.00 281.00 Z"/>
</g>
<g fill="#908396" fill-opacity="1.00" stroke="None">
<path d="
M 269.00 261.00 
C 268.21 256.63 270.48 250.57 268.00 247.00
C 269.80 250.87 265.80 257.80 269.00 261.00 Z"/>
</g>
<g fill="#94958E" fill-opacity="1.00" stroke="None">
<path d="
M 110.00 256.00 
C 115.69 258.38 127.58 250.60 133.00 255.00
C 132.34 252.60 131.68 250.09 131.00 248.00
C 129.71 250.05 120.16 248.65 117.74 248.40 C 115.33 248.16 107.19 249.82 105.00 248.00
C 106.29 251.14 107.97 253.53 110.00 256.00 Z"/>
</g>
<g fill="#000000" fill-opacity="1.00" stroke="None">
<path d="
M 244.00 251.00 
C 246.73 251.24 258.86 254.65 252.00 248.00
C 252.54 249.31 253.41 250.44 253.00 252.00
C 249.57 251.39 246.64 250.86 244.00 251.00 Z"/>
</g>
<g fill="#000000" fill-opacity="1.00" stroke="None">
<path d="
M 349.00 265.00 
C 348.58 260.37 349.31 255.64 349.00 251.00
C 353.00 251.00 357.00 251.00 361.00 251.00
C 352.83 242.57 341.96 257.96 349.00 265.00 Z"/>
</g>
<g fill="#F9F7F9" fill-opacity="1.00" stroke="None">
<path d="
M 322.00 251.00 
C 306.23 246.21 298.63 269.60 313.78 275.22 C 328.93 280.84 336.68 255.46 322.00 251.00 Z"/>
</g>
<g fill="#C4B9C9" fill-opacity="1.00" stroke="None">
<path d="
M 349.00 265.00 
C 349.00 265.04 350.00 265.00 350.00 265.00
C 350.39 260.70 349.71 256.31 350.00 252.00
C 353.67 252.00 357.33 252.00 361.00 252.00
C 361.00 252.00 361.25 251.26 361.00 251.00
C 357.00 251.00 353.00 251.00 349.00 251.00
C 349.31 255.64 348.58 260.37 349.00 265.00 Z"/>
</g>
<g fill="#FBFBFB" fill-opacity="1.00" stroke="None">
<path d="
M 350.00 265.00 
C 352.92 265.00 356.10 265.36 359.00 265.00
C 365.03 263.51 370.03 253.49 361.00 252.00
C 357.33 252.00 353.67 252.00 350.00 252.00
C 349.71 256.31 350.39 260.70 350.00 265.00 Z"/>
</g>
<g fill="#A98E86" fill-opacity="1.00" stroke="None">
<path d="
M 180.00 256.00 
C 178.67 251.64 164.45 257.11 160.02 253.98 C 155.60 250.85 143.15 255.83 139.00 253.00
C 139.09 256.94 141.42 260.23 142.00 264.00
C 154.26 264.70 165.92 262.98 178.00 263.00
C 177.66 260.87 180.33 257.91 180.00 256.00 Z"/>
</g>
<g fill="#AD8C84" fill-opacity="1.00" stroke="None">
<path d="
M 110.00 256.00 
C 116.50 263.91 117.53 262.99 127.93 267.07 C 138.32 271.15 135.25 263.18 133.00 255.00
C 127.58 250.60 115.69 258.38 110.00 256.00 Z"/>
</g>
<g fill="#AF8C87" fill-opacity="1.00" stroke="None">
<path d="
M 181.00 268.00 
C 189.21 264.62 199.59 262.78 204.00 273.00
C 201.33 265.17 194.12 258.03 186.00 256.00
C 183.44 259.12 184.61 265.58 181.00 268.00 Z"/>
</g>
<g fill="#C9877E" fill-opacity="1.00" stroke="None">
<path d="
M 181.00 268.00 
C 168.57 271.58 151.06 265.36 141.00 272.00
C 153.62 276.94 168.21 274.41 182.00 275.00
C 182.03 276.00 181.96 277.00 182.00 278.00
C 182.78 277.17 183.27 276.41 183.00 275.00
C 190.33 275.59 203.06 271.26 205.00 281.00
C 204.89 278.08 204.83 275.66 204.00 273.00
C 199.59 262.78 189.21 264.62 181.00 268.00 Z"/>
</g>
<g fill="#000000" fill-opacity="1.00" stroke="None">
<path d="
M 269.00 266.00 
C 274.62 265.49 280.37 266.38 286.00 266.00
C 287.28 270.67 282.68 280.94 290.00 281.00
C 289.73 279.53 288.00 280.11 287.00 280.00
C 286.27 277.31 288.84 265.51 285.00 265.00 C 281.16 264.49 271.42 263.58 269.00 266.00 Z"/>
</g>
<g fill="#6A5A73" fill-opacity="1.00" stroke="None">
<path d="
M 359.00 265.00 
C 356.10 265.36 352.92 265.00 350.00 265.00
C 350.00 265.00 349.00 265.04 349.00 265.00
C 351.34 267.43 356.52 265.61 359.00 265.00 Z"/>
</g>
<g fill="#000000" fill-opacity="1.00" stroke="None">
<path d="
M 388.00 268.00 
C 388.55 270.21 388.07 285.65 393.22 280.22 C 398.38 274.79 392.71 271.16 396.00 265.00
C 389.06 267.58 397.61 280.96 389.00 280.00
C 389.05 275.91 389.37 271.42 388.00 268.00 Z"/>
</g>
<g fill="#7B6D83" fill-opacity="1.00" stroke="None">
<path d="
M 268.00 279.00 
C 267.92 279.36 267.36 280.83 267.00 281.00
C 268.24 282.04 269.52 276.31 269.00 275.00 C 268.48 273.69 269.00 268.65 269.00 267.00
C 269.00 266.50 269.00 266.00 269.00 266.00
C 266.27 268.63 268.78 275.33 268.00 279.00 Z"/>
</g>
<g fill="#D3CAD5" fill-opacity="1.00" stroke="None">
<path d="
M 269.00 267.00 
C 274.33 267.00 279.67 267.00 285.00 267.00
C 285.08 270.80 283.22 284.67 290.00 281.00
C 282.68 280.94 287.28 270.67 286.00 266.00
C 280.37 266.38 274.62 265.49 269.00 266.00
C 269.00 266.00 269.00 266.50 269.00 267.00 Z"/>
</g>
<g fill="#000000" fill-opacity="1.00" stroke="None">
<path d="
M 307.00 278.00 
C 304.02 275.38 301.13 270.43 300.00 267.00
C 301.11 271.92 302.81 274.85 307.00 278.00 Z"/>
</g>
<g fill="#000000" fill-opacity="1.00" stroke="None">
<path d="
M 344.00 280.00 
C 345.00 280.96 346.37 281.49 348.00 281.00
C 350.17 279.94 348.83 272.93 349.00 271.00
C 346.78 273.02 348.59 277.16 348.00 280.00
C 347.52 279.93 343.55 279.52 344.00 280.00 Z"/>
</g>
<g fill="#B9ACBD" fill-opacity="1.00" stroke="None">
<path d="
M 348.00 281.00 
C 351.17 280.04 350.23 273.59 350.00 271.00
C 350.00 271.00 349.26 270.75 349.00 271.00
C 348.83 272.93 350.17 279.94 348.00 281.00 Z"/>
</g>
<g fill="#060610" fill-opacity="1.00" stroke="None">
<path d="
M 248.00 280.00 
C 252.36 279.04 253.92 277.24 255.00 273.00
C 253.77 276.46 250.30 277.60 248.00 280.00 Z"/>
</g>
<g fill="#F1806F" fill-opacity="1.00" stroke="None">
<path d="
M 182.00 278.00 
C 178.44 280.81 179.20 286.48 174.22 288.22 C 169.25 289.95 165.11 284.94 166.00 280.00
C 161.67 280.00 157.33 280.00 153.00 280.00
C 155.53 289.56 139.85 291.82 140.00 282.00
C 129.74 282.94 118.16 279.21 109.75 285.75 C 101.34 292.29 102.88 302.30 103.00 312.00
C 124.15 313.16 149.25 310.46 170.00 312.00 C 190.75 313.54 205.79 301.76 205.00 281.00
C 203.06 271.26 190.33 275.59 183.00 275.00
C 183.27 276.41 182.78 277.17 182.00 278.00 Z"/>
</g>
<g fill="#D7867D" fill-opacity="1.00" stroke="None">
<path d="
M 174.00 280.00 
C 171.01 278.55 168.70 282.67 171.77 284.21 C 174.84 285.75 176.29 281.11 174.00 280.00 Z"/>
</g>
<g fill="#000000" fill-opacity="1.00" stroke="None">
<path d="
M 237.00 281.00 
C 239.73 281.56 244.23 281.40 247.00 281.00
C 243.81 280.04 239.74 281.30 237.00 281.00 Z"/>
</g>
<g fill="#D28A81" fill-opacity="1.00" stroke="None">
<path d="
M 149.00 282.00 
C 142.67 277.22 144.58 288.05 149.00 282.00 Z"/>
</g>
<g fill="#050306" fill-opacity="1.00" stroke="None">
<path d="
M 362.00 368.00 
C 362.06 368.35 362.89 368.74 363.00 369.00
C 363.34 360.76 370.35 356.72 378.00 357.00
C 377.75 356.72 378.00 356.00 378.00 356.00
C 367.71 355.07 364.40 359.31 362.00 368.00 Z"/>
</g>
<g fill="#460F1C" fill-opacity="1.00" stroke="None">
<path d="
M 378.00 357.00 
C 379.85 359.07 382.04 359.45 384.25 361.75 C 386.46 364.06 385.45 368.60 387.00 371.00
C 387.30 370.67 388.55 372.49 389.00 372.00
C 389.00 371.50 389.00 371.00 389.00 371.00
C 386.29 364.80 386.06 358.53 378.00 356.00
C 378.00 356.00 377.75 356.72 378.00 357.00 Z"/>
</g>
<g fill="#DFD1CC" fill-opacity="1.00" stroke="None">
<path d="
M 363.00 369.00 
C 362.98 369.50 362.77 370.84 363.00 371.00
C 363.34 371.23 364.00 371.00 364.00 371.00
C 364.82 364.99 367.28 359.66 374.01 359.01 C 380.74 358.36 386.07 364.15 385.00 371.00
C 385.50 371.00 386.84 370.77 387.00 371.00
C 385.45 368.60 386.46 364.06 384.25 361.75 C 382.04 359.45 379.85 359.07 378.00 357.00
C 370.35 356.72 363.34 360.76 363.00 369.00 Z"/>
</g>
<g fill="#301128" fill-opacity="1.00" stroke="None">
<path d="
M 402.00 361.00 
C 404.83 361.38 405.27 367.90 405.00 370.00
C 406.36 370.66 407.66 371.27 409.00 372.00
C 408.10 367.19 405.40 362.91 405.00 358.00
C 403.40 358.14 402.98 360.17 402.00 361.00 Z"/>
</g>
<g fill="#9C8055" fill-opacity="1.00" stroke="None">
<path d="
M 364.00 371.00 
C 364.50 371.00 365.53 370.87 366.00 371.00
C 367.48 366.94 368.44 358.92 375.01 360.01 C 381.58 361.10 383.27 365.62 384.00 371.00
C 384.50 371.00 385.00 371.00 385.00 371.00
C 386.07 364.15 380.74 358.36 374.01 359.01 C 367.28 359.66 364.82 364.99 364.00 371.00 Z"/>
</g>
<g fill="#FAF8F5" fill-opacity="1.00" stroke="None">
<path d="
M 366.00 371.00 
C 368.07 369.11 380.95 371.00 384.00 371.00
C 383.27 365.62 381.58 361.10 375.01 360.01 C 368.44 358.92 367.48 366.94 366.00 371.00 Z"/>
</g>
<g fill="#923C5E" fill-opacity="1.00" stroke="None">
<path d="
M 398.00 370.00 
C 398.61 370.97 401.95 375.27 402.00 376.00
C 402.58 374.58 404.81 371.51 405.00 370.00
C 405.27 367.90 404.83 361.38 402.00 361.00
C 399.51 362.39 397.91 365.25 395.00 366.00
C 396.61 367.77 397.34 368.95 398.00 370.00 Z"/>
</g>
<g fill="#6E325A" fill-opacity="1.00" stroke="None">
<path d="
M 361.00 371.00 
C 359.15 373.76 354.22 370.39 352.00 372.00
C 350.37 373.68 351.30 375.67 351.00 378.00
C 352.10 381.09 358.16 378.25 359.75 384.25 C 361.35 390.25 376.22 396.99 374.00 403.00
C 375.14 402.05 377.09 401.06 378.00 400.00
C 378.36 399.40 378.49 398.55 379.00 398.00
C 378.52 392.91 366.69 383.57 363.00 381.00
C 361.93 380.25 357.99 381.18 359.00 378.00
C 361.25 376.32 361.17 380.15 363.00 377.00
C 362.43 374.25 361.80 373.51 363.00 371.00
C 362.77 370.84 362.98 369.50 363.00 369.00
C 362.89 368.74 362.06 368.35 362.00 368.00
C 362.01 367.96 361.00 371.01 361.00 371.00 Z"/>
</g>
<g fill="#511E43" fill-opacity="1.00" stroke="None">
<path d="
M 397.00 375.00 
C 396.94 377.15 397.07 381.78 400.00 380.00
C 400.59 378.81 401.43 377.41 402.00 376.00
C 401.95 375.27 398.61 370.97 398.00 370.00
C 398.00 371.21 397.42 373.93 397.00 375.00 Z"/>
</g>
<g fill="#210010" fill-opacity="1.00" stroke="None">
<path d="
M 352.00 372.00 
C 354.22 370.39 359.15 373.76 361.00 371.00
C 358.18 371.53 354.06 369.88 352.00 372.00 Z"/>
</g>
<g fill="#451E4A" fill-opacity="1.00" stroke="None">
<path d="
M 363.00 377.00 
C 363.11 377.51 363.05 381.20 363.00 381.00
C 366.69 383.57 378.52 392.91 379.00 398.00
C 380.20 396.70 381.05 395.26 382.00 394.00
C 384.37 386.85 372.65 376.52 368.00 372.00
C 366.83 371.86 366.69 371.19 366.00 371.00
C 365.53 370.87 364.50 371.00 364.00 371.00
C 364.00 371.00 363.34 371.23 363.00 371.00
C 361.80 373.51 362.43 374.25 363.00 377.00 Z"/>
</g>
<g fill="#000000" fill-opacity="1.00" stroke="None">
<path d="
M 368.00 372.00 
C 373.85 372.72 381.13 372.53 387.00 372.00
C 387.06 371.51 387.00 371.00 387.00 371.00
C 386.84 370.77 385.50 371.00 385.00 371.00
C 385.00 371.00 384.50 371.00 384.00 371.00
C 380.95 371.00 368.07 369.11 366.00 371.00
C 366.69 371.19 366.83 371.86 368.00 372.00 Z"/>
</g>
<g fill="#956367" fill-opacity="1.00" stroke="None">
<path d="
M 387.00 372.00 
C 386.81 373.54 386.48 376.23 388.00 377.00
C 388.05 376.85 389.00 377.00 389.00 377.00
C 388.93 375.34 389.00 373.66 389.00 372.00
C 388.55 372.49 387.30 370.67 387.00 371.00
C 387.00 371.00 387.06 371.51 387.00 372.00 Z"/>
</g>
<g fill="#000000" fill-opacity="1.00" stroke="None">
<path d="
M 389.00 372.00 
C 389.00 373.66 388.93 375.34 389.00 377.00
C 389.10 379.32 388.67 378.90 388.00 381.00
C 387.60 382.25 387.35 387.15 387.00 388.00
C 389.72 382.33 392.90 376.91 395.00 371.00
C 393.04 371.24 390.95 370.68 389.00 371.00
C 389.00 371.00 389.00 371.50 389.00 372.00
M 393.00 372.00 
C 393.73 380.92 385.77 372.65 393.00 372.00 Z"/>
</g>
<g fill="#241033" fill-opacity="1.00" stroke="None">
<path d="
M 382.00 394.00 
C 383.53 391.97 385.61 390.42 387.00 388.00
C 387.35 387.15 387.60 382.25 388.00 381.00
C 387.91 380.75 383.45 380.14 385.00 378.00
C 386.69 375.60 387.86 380.93 388.00 377.00
C 386.48 376.23 386.81 373.54 387.00 372.00
C 381.13 372.53 373.85 372.72 368.00 372.00
C 372.65 376.52 384.37 386.85 382.00 394.00 Z"/>
</g>
<g fill="#150825" fill-opacity="1.00" stroke="None">
<path d="
M 393.00 372.00 
C 385.77 372.65 393.73 380.92 393.00 372.00 Z"/>
</g>
<g fill="#1C0A2C" fill-opacity="1.00" stroke="None">
<path d="
M 395.00 379.00 
C 393.54 383.61 392.05 386.33 389.00 390.00
C 386.56 392.94 384.58 397.04 382.00 400.00
C 382.16 400.65 384.27 400.51 384.00 403.00
C 384.95 402.05 386.04 401.09 387.00 400.00
C 389.23 396.47 393.70 390.22 397.00 386.00
C 398.16 384.15 399.00 382.02 400.00 380.00
C 397.07 381.78 396.94 377.15 397.00 375.00
C 396.56 376.14 395.46 377.54 395.00 379.00 Z"/>
</g>
<g fill="#E5C9B6" fill-opacity="1.00" stroke="None">
<path d="
M 363.00 381.00 
C 363.05 381.20 363.11 377.51 363.00 377.00
C 361.17 380.15 361.25 376.32 359.00 378.00
C 357.99 381.18 361.93 380.25 363.00 381.00 Z"/>
</g>
<g fill="#EBC9AA" fill-opacity="1.00" stroke="None">
<path d="
M 388.00 381.00 
C 388.67 378.90 389.10 379.32 389.00 377.00
C 389.00 377.00 388.05 376.85 388.00 377.00
C 387.86 380.93 386.69 375.60 385.00 378.00
C 383.45 380.14 387.91 380.75 388.00 381.00 Z"/>
</g>
<g fill="#9A4566" fill-opacity="1.00" stroke="None">
<path d="
M 350.00 385.00 
C 352.30 382.55 358.86 391.64 360.92 394.08 C 362.97 396.52 369.32 402.79 371.00 406.00
C 372.20 405.33 373.58 404.36 374.00 403.00
C 376.22 396.99 361.35 390.25 359.75 384.25 C 358.16 378.25 352.10 381.09 351.00 378.00
C 350.80 379.54 350.36 382.91 350.00 385.00 Z"/>
</g>
<g fill="#080914" fill-opacity="1.00" stroke="None">
<path d="
M 389.00 390.00 
C 392.05 386.33 393.54 383.61 395.00 379.00
C 393.36 382.35 391.10 386.61 389.00 390.00 Z"/>
</g>
<g fill="#C35D70" fill-opacity="1.00" stroke="None">
<path d="
M 350.00 385.00 
C 349.73 386.57 348.87 387.19 349.00 389.00
C 351.80 389.59 356.91 396.65 359.25 398.75 C 361.59 400.86 369.11 407.25 368.00 409.00
C 367.77 409.36 368.00 410.00 368.00 410.00
C 371.42 407.57 375.76 403.67 378.00 400.00
C 377.09 401.06 375.14 402.05 374.00 403.00
C 373.58 404.36 372.20 405.33 371.00 406.00
C 369.32 402.79 362.97 396.52 360.92 394.08 C 358.86 391.64 352.30 382.55 350.00 385.00 Z"/>
</g>
<g fill="#AA7F4B" fill-opacity="1.00" stroke="None">
<path d="
M 393.00 397.00 
C 392.69 399.75 396.64 406.65 395.00 410.00 C 393.36 413.35 397.68 423.05 394.00 425.00
C 396.45 425.00 404.46 426.30 406.00 424.00
C 404.16 411.03 403.51 397.78 401.00 385.00
C 397.78 388.20 396.06 393.49 393.00 397.00 Z"/>
</g>
<g fill="#030407" fill-opacity="1.00" stroke="None">
<path d="
M 387.00 400.00 
C 390.79 395.69 393.89 390.98 397.00 386.00
C 393.70 390.22 389.23 396.47 387.00 400.00 Z"/>
</g>
<g fill="#A04563" fill-opacity="1.00" stroke="None">
<path d="
M 349.00 390.00 
C 350.82 394.18 361.09 413.33 368.00 409.00
C 369.11 407.25 361.59 400.86 359.25 398.75 C 356.91 396.65 351.80 389.59 349.00 389.00
C 349.00 389.00 348.95 389.50 349.00 390.00 Z"/>
</g>
<g fill="#742F59" fill-opacity="1.00" stroke="None">
<path d="
M 348.00 398.00 
C 348.21 405.53 355.99 408.09 360.00 414.00
C 361.34 413.27 362.64 412.66 364.00 412.00
C 365.31 411.42 366.98 411.32 368.00 410.00
C 368.00 410.00 367.77 409.36 368.00 409.00
C 361.09 413.33 350.82 394.18 349.00 390.00
C 349.28 392.95 348.24 395.42 348.00 398.00 Z"/>
</g>
<g fill="#CDAC78" fill-opacity="1.00" stroke="None">
<path d="
M 390.00 400.00 
C 386.43 407.19 390.60 417.24 389.00 425.00
C 390.67 425.00 392.33 425.00 394.00 425.00
C 397.68 423.05 393.36 413.35 395.00 410.00 C 396.64 406.65 392.69 399.75 393.00 397.00
C 392.27 397.84 390.85 399.13 390.00 400.00 Z"/>
</g>
<g fill="#301139" fill-opacity="1.00" stroke="None">
<path d="
M 364.00 412.00 
C 362.64 412.66 361.34 413.27 360.00 414.00
C 355.99 408.09 348.21 405.53 348.00 398.00
C 348.38 406.61 345.45 414.36 346.00 423.00
C 353.26 421.71 358.36 415.91 364.00 412.00 Z"/>
</g>
<g fill="#722B4D" fill-opacity="1.00" stroke="None">
<path d="
M 379.00 403.00 
C 379.03 403.24 381.23 403.82 381.00 406.00
C 381.89 405.11 383.06 403.94 384.00 403.00
C 384.27 400.51 382.16 400.65 382.00 400.00
C 381.27 400.84 379.86 402.13 379.00 403.00 Z"/>
</g>
<g fill="#F0DEAE" fill-opacity="1.00" stroke="None">
<path d="
M 379.00 410.00 
C 382.44 411.87 378.49 421.82 380.00 425.00
C 383.00 425.00 386.00 425.00 389.00 425.00
C 390.60 417.24 386.43 407.19 390.00 400.00
C 387.11 402.95 382.57 408.16 379.00 410.00 Z"/>
</g>
<g fill="#B15B70" fill-opacity="1.00" stroke="None">
<path d="
M 374.00 408.00 
C 375.07 407.51 377.62 407.97 378.00 409.00
C 379.40 408.16 379.89 407.11 381.00 406.00
C 381.23 403.82 379.03 403.24 379.00 403.00
C 377.50 404.53 375.58 406.45 374.00 408.00 Z"/>
</g>
<g fill="#6B2B51" fill-opacity="1.00" stroke="None">
<path d="
M 374.00 408.00 
C 373.14 408.84 371.92 410.16 371.00 411.00
C 369.73 412.87 370.22 414.60 369.00 416.00
C 370.35 415.07 371.77 413.98 373.00 413.00
C 374.26 412.00 375.85 411.02 377.00 410.00
C 377.26 409.77 377.68 409.19 378.00 409.00
C 377.62 407.97 375.07 407.51 374.00 408.00 Z"/>
</g>
<g fill="#D9BB86" fill-opacity="1.00" stroke="None">
<path d="
M 373.00 413.00 
C 372.75 413.21 373.00 414.00 373.00 414.00
C 374.22 413.11 375.38 411.87 377.00 412.00
C 374.94 415.87 376.48 420.72 376.00 425.00
C 377.33 425.00 378.67 425.00 380.00 425.00
C 378.49 421.82 382.44 411.87 379.00 410.00
C 378.00 410.51 377.11 409.97 377.00 410.00
C 375.85 411.02 374.26 412.00 373.00 413.00 Z"/>
</g>
<g fill="#2B0E30" fill-opacity="1.00" stroke="None">
<path d="
M 361.00 418.00 
C 359.72 419.06 358.35 421.14 357.00 422.00
C 361.12 420.24 365.29 418.56 369.00 416.00
C 370.22 414.60 369.73 412.87 371.00 411.00
C 368.06 413.68 364.00 415.51 361.00 418.00 Z"/>
</g>
<g fill="#C29D63" fill-opacity="1.00" stroke="None">
<path d="
M 373.00 414.00 
C 371.30 415.66 369.07 423.53 372.00 425.00
C 373.33 425.00 374.67 425.00 376.00 425.00
C 376.48 420.72 374.94 415.87 377.00 412.00
C 375.38 411.87 374.22 413.11 373.00 414.00 Z"/>
</g>
<g fill="#A57848" fill-opacity="1.00" stroke="None">
<path d="
M 369.00 416.00 
C 365.29 418.56 361.12 420.24 357.00 422.00
C 355.01 422.85 352.73 424.40 351.00 425.00
C 358.00 425.00 365.00 425.00 372.00 425.00
C 369.07 423.53 371.30 415.66 373.00 414.00
C 373.00 414.00 372.75 413.21 373.00 413.00
C 371.77 413.98 370.35 415.07 369.00 416.00 Z"/>
</g>
<g fill="#1D1619" fill-opacity="1.00" stroke="None">
<path d="
M 349.00 425.00 
C 349.04 425.13 350.50 425.00 351.00 425.00
C 352.73 424.40 355.01 422.85 357.00 422.00
C 358.35 421.14 359.72 419.06 361.00 418.00
C 359.15 419.14 347.95 424.47 349.00 425.00 Z"/>
</g>
<g fill="#E8E0CC" fill-opacity="1.00" stroke="None">
<path d="
M 394.00 425.00 
C 392.33 425.00 390.67 425.00 389.00 425.00
C 386.00 425.00 383.00 425.00 380.00 425.00
C 378.67 425.00 377.33 425.00 376.00 425.00
C 374.67 425.00 373.33 425.00 372.00 425.00
C 365.00 425.00 358.00 425.00 351.00 425.00
C 350.50 425.00 349.04 425.13 349.00 425.00
C 349.80 427.77 359.72 425.50 363.00 426.00 C 366.28 426.50 374.08 425.96 378.00 426.00 C 381.92 426.04 389.16 426.39 393.00 426.00 C 396.84 425.61 404.25 427.96 406.00 424.00
C 404.46 426.30 396.45 425.00 394.00 425.00 Z"/>
</g>
</svg>